:SAMPLES-PER-SECOND 30
:FULLY-SPECIFIED
:DEGREES
489
root  -33.1999 33.7179 -35.4927 -166.224 -29.7929 175.397
RightUpLeg  -6.26943 -14.0649 -4.42152
RightLeg  26.5042 -11.1885 -4.67039
RightFoot  -9.60443 0.147964 2.37876
RightToes  -29.746 -0.142176 -0.250197
Spine  -1.06514 1.5104 -2.94621
Spine1  -2.25671 3.43428 -5.18173
HEad  -45.6174 -15.8215 -2.0561
LeftShoulder1  -1.94126e-019 -3.10601e-018 -2.51263e-017
LeftArm  -30.1862 28.2837 -72.1467
LeftForeArm  27.7371 -8.38297 -1.47238
LeftHand  -0.29198 2.16767 10.3135
RightShoulder  -4.96962e-017 0 -2.36833e-017
RightArm  -14.5264 -11.524 81.8338
RightForeArm  50.0839 28.1663 3.44151
RightHand  -0.318305 -2.2597 -11.5464
LeftUpLeg  -33.1722 -12.0006 0.323047
LeftLeg  23.3057 11.1555 3.94284
LeftFoot  10.9776 -0.229178 2.5462
LeftToes  -21.3314 1.46665e-006 1.03344e-007
490
root  -33.952 33.942 -36.28 -166.836 -28.1287 176.002
RightUpLeg  -8.92894 -14.4579 -5.02356
RightLeg  33.929 -10.8213 -6.25723
RightFoot  -3.63093 0.0153988 1.12292
RightToes  -41.6116 -0.231484 -0.324044
Spine  -0.992295 1.67202 -2.83254
Spine1  -2.11398 3.6297 -4.93115
HEad  -47.6102 -16.9567 -2.37538
LeftShoulder1  -1.94126e-019 -3.10601e-018 -2.51263e-017
LeftArm  -31.2656 26.2851 -73.2899
LeftForeArm  28.3151 -7.46623 -1.30974
LeftHand  -0.275618 2.57408 11.0755
RightShoulder  -4.96962e-017 0 -2.36833e-017
RightArm  -16.1828 -12.4893 82.63
RightForeArm  50.3009 25.7675 2.93496
RightHand  -0.294031 -2.57894 -11.8084
LeftUpLeg  -30.4872 -7.2003 -1.31987
LeftLeg  22.7129 8.43558 2.89347
LeftFoot  8.22657 -0.0974142 1.51607
LeftToes  -18.0342 1.46665e-006 1.03344e-007
491
root  -34.6423 34.2205 -37.0059 -167.254 -25.8556 176.595
RightUpLeg  -13.009 -15.2156 -5.25939
RightLeg  42.0067 -10.8071 -8.45149
RightFoot  2.96368 0.0260445 -0.422764
RightToes  -40.4956 -0.222454 -0.317905
Spine  -0.99173 1.78985 -2.59954
Spine1  -2.11009 3.76765 -4.46102
HEad  -49.662 -17.2373 -2.93494
LeftShoulder1  -1.94126e-019 -3.10601e-018 -2.51263e-017
LeftArm  -30.3749 25.2603 -74.9525
LeftForeArm  27.0891 -8.26899 -1.45414
LeftHand  -0.249971 2.81539 10.9108
RightShoulder  -4.96962e-017 0 -2.36833e-017
RightArm  -16.8489 -13.4078 82.9474
RightForeArm  51.5758 23.5544 2.4373
RightHand  -0.319003 -1.91718 -10.466
LeftUpLeg  -27.282 -4.6005 -1.9256
LeftLeg  20.3357 8.32007 2.47564
LeftFoot  7.04363 -0.0686317 1.27665
LeftToes  -17.2541 1.46665e-006 1.03344e-007
492
root  -35.2697 34.4611 -37.7003 -167.513 -23.7045 176.747
RightUpLeg  -17.224 -17.2588 -5.34704
RightLeg  48.83 -10.9294 -10.8245
RightFoot  5.23227 0.0801691 -1.14595
RightToes  -22.3552 -0.0949735 -0.195484
Spine  -0.922415 1.55315 -2.43999
Spine1  -1.96864 3.24133 -4.14829
HEad  -52.2309 -16.3676 -3.06202
LeftShoulder1  -1.94126e-019 -3.10601e-018 -2.51263e-017
LeftArm  -27.8793 24.6226 -76.2914
LeftForeArm  25.6607 -10.0835 -1.77351
LeftHand  -0.26732 2.42641 10.2045
RightShoulder  -4.96962e-017 0 -2.36833e-017
RightArm  -16.7508 -13.6481 83.243
RightForeArm  53.5591 21.1052 1.88004
RightHand  -0.33424 -0.614308 -8.10515
LeftUpLeg  -24.2006 -3.91688 -2.38287
LeftLeg  17.9892 9.68853 2.45509
LeftFoot  6.45483 -0.0654973 1.32304
LeftToes  -16.3092 1.46665e-006 1.03344e-007
493
root  -35.8251 34.6503 -38.3803 -167.853 -22.0323 177.131
RightUpLeg  -20.9123 -19.7328 -4.54642
RightLeg  52.4225 -9.11015 -10.278
RightFoot  3.79477 0.0415216 -0.65937
RightToes  -22.5036 -0.0958504 -0.19664
Spine  -0.749021 1.20171 -2.14098
Spine1  -1.60323 2.50493 -3.55826
HEad  -55.0035 -15.4102 -3.09742
LeftShoulder1  -1.94126e-019 -3.10601e-018 -2.51263e-017
LeftArm  -24.0337 23.6851 -77.3144
LeftForeArm  25.3603 -12.9504 -2.22158
LeftHand  -0.3161 1.38926 9.08724
RightShoulder  -4.96962e-017 0 -2.36833e-017
RightArm  -17.4587 -13.5753 83.214
RightForeArm  55.7035 18.7441 1.37606
RightHand  -0.335961 -0.0865479 -7.38693
LeftUpLeg  -21.3273 -3.72483 -2.54454
LeftLeg  15.7653 11.3015 2.40014
LeftFoot  5.88738 -0.0625043 1.37701
LeftToes  -14.9569 1.46665e-006 1.03344e-007
494
root  -36.3169 34.7741 -39.0465 -168.121 -20.2584 177.609
RightUpLeg  -24.6236 -21.7455 -2.84251
RightLeg  53.3394 -7.02526 -8.24819
RightFoot  2.43188 0.0165905 -0.21495
RightToes  -22.9745 -0.0964547 -0.197436
Spine  -0.628731 0.941802 -1.89615
Spine1  -1.35681 1.99121 -3.0826
HEad  -57.4204 -14.457 -2.8782
LeftShoulder1  -1.94126e-019 -3.10601e-018 -2.51263e-017
LeftArm  -19.1996 22.6213 -77.61
LeftForeArm  26.1915 -17.3793 -2.89295
LeftHand  -0.325846 0.551573 7.82715
RightShoulder  -4.96962e-017 0 -2.36833e-017
RightArm  -19.0997 -14.1009 83.115
RightForeArm  56.355 17.1057 1.12175
RightHand  -0.346047 -0.153775 -7.6995
LeftUpLeg  -18.9113 -2.62981 -2.71691
LeftLeg  14.0507 12.0979 2.19414
LeftFoot  5.13923 -0.0506724 1.29062
LeftToes  -13.971 1.46665e-006 1.03344e-007
495
root  -36.7433 34.848 -39.7052 -168.377 -18.0628 177.939
RightUpLeg  -27.9354 -22.9222 -0.627952
RightLeg  51.7059 -6.10742 -6.79431
RightFoot  0.921373 0.00332336 0.0929427
RightToes  -22.8412 -0.0968421 -0.197945
Spine  -0.48609 0.774399 -1.78186
Spine1  -1.07732 1.67098 -2.8826
HEad  -59.3713 -13.2801 -2.16799
LeftShoulder1  -1.94126e-019 -3.10601e-018 -2.51263e-017
LeftArm  -14.1138 21.105 -77.0996
LeftForeArm  26.5409 -21.6043 -3.48893
LeftHand  -0.29135 0.761262 7.28765
RightShoulder  -4.96962e-017 0 -2.36833e-017
RightArm  -21.6609 -14.7375 83.2402
RightForeArm  55.8705 16.0376 1.03679
RightHand  -0.359792 -0.715325 -8.90714
LeftUpLeg  -16.8956 -0.552644 -3.05344
LeftLeg  13.0945 12.2416 2.01131
LeftFoot  4.23579 -0.0347116 1.10017
LeftToes  -13.0736 1.46665e-006 1.03344e-007
496
root  -37.0998 34.8843 -40.3698 -168.832 -16.071 178.446
RightUpLeg  -30.0276 -23.7485 2.19686
RightLeg  46.7714 -6.39356 -5.98262
RightFoot  -0.0676979 -0.00084716 0.241218
RightToes  -22.6181 -0.0965295 -0.197532
Spine  -0.280618 0.505982 -1.57568
Spine1  -0.662578 1.1412 -2.50073
HEad  -60.3722 -11.7284 -1.53196
LeftShoulder1  -1.94126e-019 -3.10601e-018 -2.51263e-017
LeftArm  -9.68519 19.0674 -76.1232
LeftForeArm  26.7026 -24.6023 -3.94482
LeftHand  -0.304971 0.4205 7.14205
RightShoulder  -4.96962e-017 0 -2.36833e-017
RightArm  -22.7899 -15.1825 82.8866
RightForeArm  54.6923 15.6386 1.0919
RightHand  -0.351362 -1.07306 -9.37862
LeftUpLeg  -15.3086 1.49235 -3.06065
LeftLeg  13.2357 12.1938 2.03419
LeftFoot  2.89496 -0.0161175 0.799396
LeftToes  -12.1859 1.46665e-006 1.03344e-007
497
root  -37.4078 34.8805 -41.0397 -169.227 -14.4114 178.904
RightUpLeg  -30.9873 -24.7467 5.29765
RightLeg  38.8954 -6.94551 -4.8976
RightFoot  -0.403617 -0.00749103 0.274011
RightToes  -22.3013 -0.0946555 -0.195063
Spine  -0.195976 0.167388 -1.34213
Spine1  -0.482372 0.458945 -2.05735
HEad  -59.7082 -9.32188 -1.51514
LeftShoulder1  -1.94126e-019 -3.10601e-018 -2.51263e-017
LeftArm  -8.16258 17.0776 -75.3072
LeftForeArm  27.5927 -26.5623 -4.26749
LeftHand  -0.335349 -0.205313 7.0339
RightShoulder  -4.96962e-017 0 -2.36833e-017
RightArm  -22.8242 -15.7047 82.1928
RightForeArm  54.7148 15.2902 1.12204
RightHand  -0.343511 -1.05058 -9.12125
LeftUpLeg  -14.1953 2.59439 -2.93522
LeftLeg  14.2364 12.7413 2.35118
LeftFoot  1.20366 -0.00289932 0.437587
LeftToes  -11.5098 1.46665e-006 1.03344e-007
498
root  -37.6633 34.8365 -41.7718 -169.693 -12.9854 179.506
RightUpLeg  -30.7353 -26.862 8.96454
RightLeg  28.4634 -6.27959 -2.89762
RightFoot  0.918876 0.00355016 0.0710511
RightToes  -25.354 -0.113272 -0.218414
Spine  -0.141711 -0.152431 -1.02766
Spine1  -0.358689 -0.193102 -1.45039
HEad  -58.5891 -6.71801 -1.49256
LeftShoulder1  -1.94126e-019 -3.10601e-018 -2.51263e-017
LeftArm  -8.42206 14.9794 -74.7567
LeftForeArm  27.165 -27.4006 -4.49155
LeftHand  -0.351393 -0.0435217 7.57288
RightShoulder  -4.96962e-017 0 -2.36833e-017
RightArm  -22.9968 -16.2355 81.3161
RightForeArm  56.2052 14.7941 1.14936
RightHand  -0.371159 -0.641455 -9.05508
LeftUpLeg  -13.2004 3.27208 -2.53004
LeftLeg  15.7775 13.4533 2.85211
LeftFoot  -0.700424 -0.00108471 -0.0159483
LeftToes  -11.3115 1.46665e-006 1.03344e-007
499
root  -37.8903 34.7271 -42.5657 -170.147 -11.7426 179.866
RightUpLeg  -30.1425 -30.4108 12.9082
RightLeg  18.305 -2.98062 -0.778153
RightFoot  4.80013 0.0280536 -0.122656
RightToes  -29.2909 -0.139069 -0.247008
Spine  -0.189139 -0.391939 -0.789771
Spine1  -0.433767 -0.695671 -0.98079
HEad  -57.8624 -4.7634 -1.01969
LeftShoulder1  -1.94126e-019 -3.10601e-018 -2.51263e-017
LeftArm  -9.90876 12.9334 -74.4444
LeftForeArm  26.4753 -27.4589 -4.6212
LeftHand  -0.346292 0.530475 8.28727
RightShoulder  -4.96962e-017 0 -2.36833e-017
RightArm  -22.5156 -17.4044 80.3887
RightForeArm  56.2516 14.6551 1.16667
RightHand  -0.355698 -0.870458 -9.09094
LeftUpLeg  -12.0484 3.66598 -2.2799
LeftLeg  17.3402 14.2887 3.4298
LeftFoot  -3.04238 -0.0214751 -0.647113
LeftToes  -10.1084 1.46665e-006 1.03344e-007
500
root  -38.0627 34.5584 -43.3942 -170.745 -10.4084 -179.522
RightUpLeg  -28.333 -29.3791 14.419
RightLeg  12.2428 -3.30182 -0.495662
RightFoot  7.6647 0.0594866 -0.335474
RightToes  -17.9827 -0.0705008 -0.160408
Spine  -0.292821 -0.34605 -0.513813
Spine1  -0.630894 -0.624876 -0.455832
HEad  -57.1678 -3.98905 -0.378798
LeftShoulder1  -1.94126e-019 -3.10601e-018 -2.51263e-017
LeftArm  -12.1853 11.0424 -74.4839
LeftForeArm  26.7172 -27.3058 -4.69132
LeftHand  -0.347439 0.885402 8.93396
RightShoulder  -4.96962e-017 0 -2.36833e-017
RightArm  -23.112 -18.9436 79.5371
RightForeArm  56.1423 14.3848 1.20434
RightHand  -0.353911 -1.11096 -9.52719
LeftUpLeg  -11.1368 4.57275 -1.70474
LeftLeg  19.7626 14.5995 4.15315
LeftFoot  -5.61665 -0.075513 -1.37775
LeftToes  -9.98137 1.46665e-006 1.03344e-007
501
root  -38.273 34.3078 -44.2978 -171.847 -9.07792 -178.969
RightUpLeg  -25.5551 -24.1127 12.7194
RightLeg  12.3994 -8.97781 -1.36786
RightFoot  5.40806 0.0624541 -0.740072
RightToes  -4.63025 -0.0132788 -0.0432983
Spine  -0.30953 -0.256556 -0.242694
Spine1  -0.656466 -0.477545 0.0492945
HEad  -56.5907 -3.44167 0.132853
LeftShoulder1  -1.94126e-019 -3.10601e-018 -2.51263e-017
LeftArm  -14.3059 9.75063 -74.6736
LeftForeArm  27.2485 -27.6615 -4.82625
LeftHand  -0.342991 1.13717 9.31476
RightShoulder  -4.96962e-017 0 -2.36833e-017
RightArm  -24.4953 -20.3527 78.737
RightForeArm  56.8053 13.7466 1.28298
RightHand  -0.362401 -1.15459 -9.8546
LeftUpLeg  -10.2945 6.61847 -1.06047
LeftLeg  23.6241 13.6717 4.8982
LeftFoot  -8.60533 -0.169098 -2.08569
LeftToes  -10.2904 1.46665e-006 1.03344e-007
